<?xml version="1.0" encoding="UTF-8" standalone="no"?>
<!-- Created with Inkscape (http://www.inkscape.org/) -->

<svg
   xmlns:dc="http://purl.org/dc/elements/1.1/"
   xmlns:cc="http://creativecommons.org/ns#"
   xmlns:rdf="http://www.w3.org/1999/02/22-rdf-syntax-ns#"
   xmlns:svg="http://www.w3.org/2000/svg"
   xmlns="http://www.w3.org/2000/svg"
   xmlns:sodipodi="http://sodipodi.sourceforge.net/DTD/sodipodi-0.dtd"
   xmlns:inkscape="http://www.inkscape.org/namespaces/inkscape"
   width="95"
   height="95"
   viewBox="0 0 95.000001 95.000002"
   id="svg9317"
   version="1.1"
   inkscape:version="0.91 r13725"
   sodipodi:docname="001_moeruGOMI.svg">
  <defs
     id="defs9319">
    <clipPath
       clipPathUnits="userSpaceOnUse"
       id="clipPath8446">
      <path
         d="m 0,0 595.276,0 0,841.89 L 0,841.89 0,0 Z"
         id="path8448"
         inkscape:connector-curvature="0" />
    </clipPath>
    <clipPath
       clipPathUnits="userSpaceOnUse"
       id="clipPath8446-0">
      <path
         d="m 0,0 595.276,0 0,841.89 L 0,841.89 0,0 Z"
         id="path8448-5"
         inkscape:connector-curvature="0" />
    </clipPath>
  </defs>
  <sodipodi:namedview
     id="base"
     pagecolor="#ffffff"
     bordercolor="#666666"
     borderopacity="1.0"
     inkscape:pageopacity="0"
     inkscape:pageshadow="2"
     inkscape:zoom="5.7789474"
     inkscape:cx="47.5"
     inkscape:cy="47.5"
     inkscape:document-units="px"
     inkscape:current-layer="layer1"
     showgrid="false"
     inkscape:window-width="1280"
     inkscape:window-height="751"
     inkscape:window-x="0"
     inkscape:window-y="1"
     inkscape:window-maximized="1"
     showguides="false"
     units="px"
     fit-margin-top="0"
     fit-margin-left="0"
     fit-margin-right="0"
     fit-margin-bottom="0">
    <inkscape:grid
       type="xygrid"
       id="grid3354"
       originx="0"
       originy="-955.99998" />
  </sodipodi:namedview>
  <metadata
     id="metadata9322">
    <rdf:RDF>
      <cc:Work
         rdf:about="">
        <dc:format>image/svg+xml</dc:format>
        <dc:type
           rdf:resource="http://purl.org/dc/dcmitype/StillImage" />
        <dc:title></dc:title>
      </cc:Work>
    </rdf:RDF>
  </metadata>
  <g
     inkscape:label="レイヤー 1"
     inkscape:groupmode="layer"
     id="layer1"
     transform="translate(0,-1.362205)">
    <path
       d="m 0,1.362205 95,0 0,95 -95,0 0,-95 z"
       style="fill:#e4007f;fill-opacity:1;fill-rule:nonzero;stroke:none"
       id="path5750"
       inkscape:connector-curvature="0" />
    <g
       transform="matrix(5.3752561,0,0,-5.3742175,-241.27147,2398.0997)"
       id="g8442">
      <g
         id="g8444"
         clip-path="url(#clipPath8446-0)">
        <g
           id="g8450"
           transform="translate(48.5977,428.9874)">
          <path
             d="m 0,0 c -1.601,0 -2.904,1.303 -2.904,2.904 l 0,10.259 c 0,1.601 1.303,2.904 2.904,2.904 l 10.259,0 c 1.601,0 2.904,-1.303 2.904,-2.904 l 0,-10.259 C 13.163,1.303 11.86,0 10.259,0 L 0,0 Z"
             style="fill:#e4007f;fill-opacity:1;fill-rule:nonzero;stroke:none"
             id="path8452"
             inkscape:connector-curvature="0" />
        </g>
        <g
           id="g8454"
           transform="translate(58.8564,444.7151)">
          <path
             d="m 0,0 c 1.411,0 2.565,-1.154 2.565,-2.565 l 0,-10.259 c 0,-1.41 -1.154,-2.564 -2.565,-2.564 l -10.259,0 c -1.41,0 -2.564,1.154 -2.564,2.564 l 0,10.259 c 0,1.411 1.154,2.565 2.564,2.565 L 0,0 Z m 0,0.679 -10.259,0 c -1.788,0 -3.243,-1.455 -3.243,-3.244 l 0,-10.259 c 0,-1.788 1.455,-3.243 3.243,-3.243 l 10.259,0 c 1.788,0 3.243,1.455 3.243,3.243 l 0,10.259 C 3.243,-0.776 1.788,0.679 0,0.679"
             style="fill:#ffffff;fill-opacity:1;fill-rule:nonzero;stroke:none"
             id="path8456"
             inkscape:connector-curvature="0" />
        </g>
        <g
           id="g8458"
           transform="translate(58.7238,434.9099)">
          <path
             d="m 0,0 c 0,-2.374 -2.237,-4.298 -4.997,-4.298 -2.759,0 -4.996,1.924 -4.996,4.298 0,2.374 4.996,8.595 4.996,8.595 C -4.997,8.595 0,2.374 0,0"
             style="fill:#ee87b4;fill-opacity:1;fill-rule:nonzero;stroke:none"
             id="path8460"
             inkscape:connector-curvature="0" />
        </g>
        <g
           id="g8462"
           transform="translate(57.3029,433.6879)">
          <path
             d="m 0,0 c 0,-1.699 -1.601,-3.076 -3.576,-3.076 -1.974,0 -3.575,1.377 -3.575,3.076 0,1.698 3.575,6.151 3.575,6.151 C -3.576,6.151 0,1.698 0,0"
             style="fill:#f7c9dd;fill-opacity:1;fill-rule:nonzero;stroke:none"
             id="path8464"
             inkscape:connector-curvature="0" />
        </g>
        <g
           id="g8466"
           transform="translate(55.1216,431.8117)">
          <path
             d="m 0,0 c 0,-0.662 -0.624,-1.199 -1.395,-1.199 -0.77,0 -1.394,0.537 -1.394,1.199 0,0.662 1.394,2.398 1.394,2.398 C -1.395,2.398 0,0.662 0,0"
             style="fill:#ffffff;fill-opacity:1;fill-rule:nonzero;stroke:none"
             id="path8468"
             inkscape:connector-curvature="0" />
        </g>
        <g
           id="g8470"
           transform="translate(55.2654,439.9399)">
          <path
             d="m 0,0 -0.431,0 c 0.077,0.461 0.108,0.761 0.131,1.023 l -1.23,0 c 0.053,0.3 0.061,0.331 0.084,0.484 L -2.361,1.592 C -2.392,1.33 -2.438,0.877 -2.669,0.223 L -2.953,0.654 C -3.084,0.454 -3.122,0.4 -3.268,0.254 l 0,1.315 -0.985,0 0,-3.569 c 0,-1.561 -0.7,-2.437 -0.984,-2.799 l 0.784,-0.946 c 0.193,0.269 0.569,0.769 0.862,1.7 0.153,-0.439 0.307,-0.662 0.43,-0.846 l 0.539,1.046 c -0.239,0.23 -0.554,0.7 -0.716,1.007 0.031,0.277 0.07,0.615 0.07,0.862 l 0,1.015 0.076,0.061 0.454,-0.823 c 0.023,0.023 0.123,0.154 0.146,0.185 0.085,-0.062 0.3,-0.238 0.423,-0.338 -0.33,-0.393 -0.623,-0.616 -0.884,-0.793 l 0.569,-0.784 c 1.023,0.854 1.492,1.63 1.784,2.446 l 0.6,0 c -0.277,-1.031 -0.9,-1.5 -1.415,-1.808 l 0.646,-0.907 c 0.446,0.323 1.084,0.869 1.4,1.83 0.207,-0.523 0.53,-1.176 1.222,-1.823 l 0.508,1.131 C 1.638,-2.053 1.3,-1.515 1.115,-1.007 l 0.992,0 0,1.007 -1.13,0 0,1.192 C 1.169,0.823 1.238,0.638 1.392,0.161 l 0.715,0.27 C 1.969,0.931 1.715,1.377 1.63,1.515 L 0.977,1.3 0.977,1.569 0,1.569 0,0 Z m -1.223,0.154 c -0.038,-0.208 -0.061,-0.308 -0.107,-0.469 -0.231,0.154 -0.393,0.246 -0.47,0.292 l 0.062,0.177 0.515,0 z m -0.538,-1.461 c -0.131,0.1 -0.315,0.238 -0.462,0.33 0.093,0.162 0.131,0.239 0.177,0.323 0.146,-0.1 0.262,-0.177 0.462,-0.315 -0.077,-0.169 -0.131,-0.254 -0.177,-0.338 z m -3.361,1.369 c 0,-0.239 0.008,-1.362 -0.192,-2.154 l 0.7,-0.407 c 0.207,0.846 0.2,2.391 0.192,2.514 l -0.7,0.047 z M -1.4,-3.791 c 0,-0.231 0.023,-1.046 -0.184,-1.823 l 0.969,0 c 0.007,0.169 0.023,0.377 0.023,0.708 0,0.592 -0.054,0.953 -0.085,1.145 L -1.4,-3.791 Z m 1.054,-0.023 c 0.123,-0.639 0.146,-1.123 0.154,-1.8 l 0.884,0.023 C 0.661,-4.983 0.561,-4.368 0.4,-3.761 l -0.746,-0.053 z m 1.038,0.023 c 0.246,-0.546 0.469,-1.446 0.523,-1.946 l 0.969,0.3 C 2.092,-5.083 1.83,-4.091 1.561,-3.591 l -0.869,-0.2 z m -3.184,0.207 c -0.123,-0.6 -0.415,-1.238 -0.815,-1.745 l 0.908,-0.423 c 0.338,0.43 0.584,1.076 0.792,1.999 l -0.885,0.169 z"
             style="fill:none;stroke:#e4007f;stroke-width:0.85399997;stroke-linecap:butt;stroke-linejoin:miter;stroke-miterlimit:4;stroke-dasharray:none;stroke-opacity:1"
             id="path8472"
             inkscape:connector-curvature="0" />
        </g>
      </g>
    </g>
    <text
       y="60.678864"
       x="26.854973"
       style="font-variant:normal;font-weight:bold;font-stretch:normal;font-size:41.33387756px;font-family:'A-OTF UD Shin Go NT Pro B';-inkscape-font-specification:UDShinGoNTPro-Bold;writing-mode:lr-tb;fill:#ffffff;fill-opacity:1;fill-rule:nonzero;stroke:none"
       id="text8474"
       transform="scale(1.0000967,0.99990331)">
      <tspan
         x="26.854973"
         y="60.678864"
         id="tspan8476">燃</tspan>
    </text>
  </g>
</svg>
